<?xml version="1.0" standalone="no"?>
<!DOCTYPE svg PUBLIC "-//W3C//DTD SVG 20010904//EN"
 "http://www.w3.org/TR/2001/REC-SVG-20010904/DTD/svg10.dtd">
<svg version="1.0" xmlns="http://www.w3.org/2000/svg"
 width="700.000000pt" height="700.000000pt" viewBox="0 0 700.000000 700.000000"
 preserveAspectRatio="xMidYMid meet">
<metadata>
Created by potrace 1.14, written by Peter Selinger 2001-2017
</metadata>
<g transform="translate(0.000000,700.000000) scale(0.100000,-0.100000)"
fill="#000000" stroke="none">
<path d="M3489 6616 c-2 -2 -29 -6 -59 -9 -125 -13 -270 -79 -345 -156 -135
-140 -321 -453 -490 -828 -16 -35 -30 -61 -33 -58 -2 2 -5 32 -6 67 l-1 63
-98 -1 c-125 0 -130 -5 -129 -109 0 -42 4 -111 7 -154 l6 -78 -56 -5 c-54 -5
-77 -18 -70 -42 2 -6 6 -61 10 -123 3 -61 8 -121 10 -132 2 -12 6 -49 10 -84
3 -34 8 -87 11 -118 6 -53 -2 -80 -94 -365 -56 -170 -117 -361 -137 -424 -20
-63 -42 -131 -48 -150 -12 -37 -15 -50 -20 -77 -2 -10 4 -56 15 -103 10 -47
20 -94 22 -106 8 -41 78 -301 107 -399 48 -155 176 -552 196 -605 3 -8 7 -19
9 -25 16 -50 155 -436 228 -634 25 -69 46 -126 46 -128 0 -2 -17 -2 -37 1 -21
3 -63 8 -93 11 -30 3 -80 10 -110 15 -30 5 -71 12 -90 15 -19 3 -40 11 -46 18
-15 15 -42 111 -89 307 -51 213 -45 200 -88 215 -44 15 -146 101 -264 222
l-82 84 -1 327 c-2 691 -4 749 -24 771 -20 22 -62 33 -131 35 l-40 2 3 96 c3
93 3 96 -20 104 -26 8 -125 8 -206 -1 -51 -5 -52 -5 -53 22 -4 100 -18 137
-61 159 -37 19 -56 18 -95 -8 -80 -55 -152 -268 -187 -558 -53 -436 -64 -1241
-21 -1655 3 -27 7 -75 10 -106 29 -340 135 -614 299 -771 126 -121 378 -247
596 -299 85 -20 97 -23 200 -37 102 -13 431 -7 475 10 l40 15 0 64 c-1 64 -12
166 -19 178 -3 4 -7 26 -11 49 l-6 43 147 -7 c80 -3 153 -7 162 -8 10 -2 33
-54 68 -156 30 -84 58 -158 63 -163 6 -6 45 -11 88 -12 90 -1 83 7 103 -130
16 -105 17 -115 25 -150 21 -107 30 -135 44 -140 17 -7 328 -7 431 0 117 8
200 16 214 21 8 3 18 24 21 47 4 23 9 51 11 62 6 33 16 147 18 197 0 25 4 49
7 53 4 3 28 8 53 10 96 8 98 9 131 88 16 39 37 95 46 122 l16 50 153 3 152 3
-7 -68 c-13 -119 -13 -131 1 -152 16 -22 114 -57 187 -66 158 -19 381 4 630
65 376 93 609 301 786 700 52 118 107 284 126 380 49 254 60 386 60 745 0 293
-4 365 -31 555 -39 273 -132 507 -259 651 -70 79 -176 139 -218 123 -16 -6
-46 -62 -66 -126 -10 -30 -16 -36 -34 -32 -96 20 -291 24 -308 7 -12 -12 -14
-86 -4 -154 l6 -47 -38 -7 c-44 -10 -42 -9 -68 -20 -11 -5 -23 -13 -26 -18
-10 -15 -1 -286 16 -487 3 -30 7 -86 10 -125 3 -38 8 -99 12 -135 8 -95 7 -98
-32 -157 -36 -54 -258 -285 -346 -359 -35 -29 -52 -54 -68 -97 -26 -70 -61
-200 -61 -224 0 -10 -4 -24 -8 -31 -9 -13 -263 -105 -270 -97 -2 2 19 75 46
162 74 230 112 358 196 643 41 140 91 309 111 375 143 466 235 808 235 875 0
74 -39 175 -172 438 -47 96 -85 181 -83 190 1 10 6 53 9 97 4 44 9 91 11 105
4 26 11 101 21 205 3 33 7 76 9 95 3 19 7 71 11 115 3 44 7 95 9 113 4 44 -12
57 -98 82 -99 29 -99 29 -93 39 10 15 9 262 0 271 -13 13 -100 28 -187 33 -82
5 -84 2 -87 -113 -1 -42 -4 -50 -10 -35 -5 11 -56 130 -113 265 -142 333 -232
524 -281 595 -70 102 -213 179 -345 184 -30 1 -58 4 -61 6 -4 3 -9 3 -11 1z"/>
</g>
</svg>
